<?xml version="1.0" encoding="iso-8859-1"?>
<!-- Generator: Adobe Illustrator 19.0.0, SVG Export Plug-In . SVG Version: 6.00 Build 0)  -->
<svg version="1.1" id="Layer_1" xmlns="http://www.w3.org/2000/svg" xmlns:xlink="http://www.w3.org/1999/xlink" x="0px" y="0px"
	 viewBox="0 0 512 512" style="enable-background:new 0 0 512 512;" xml:space="preserve">
<g>
	<path style="fill:#6EBEC5;" d="M256,512C114.617,512,0,397.383,0,256S114.617,0,256,0s256,114.617,256,256S397.383,512,256,512
		L256,512z"/>
	<path style="fill:#5EABB2;" d="M105.311,365.77c-0.589,0.858-1.013,1.834-1.013,2.961c0,2.795,2.155,5.007,4.878,5.276
		c0.057,0.584,0.155,1.147,0.382,1.659c0.491,12.375,6.211,23.397,15.021,30.951c1.467,1.721,102.686,102.769,103.885,103.885
		c9.048,0.966,18.224,1.493,27.525,1.493c134.505,0,244.7-103.751,255.116-235.58c-0.915-1.132-168.614-169.084-170.784-169.988
		c-1.416-3.224-4.526-5.534-8.273-5.534c-3.033,0-5.704,1.493-7.368,3.767h-4.408c-0.997-1.798-7.069-7.921-9.192-8.877
		c-1.498-3.317-4.816-5.637-8.696-5.637c-5.276,0-9.549,4.273-9.549,9.549v4.96h-12.742c-1.664-2.274-4.335-3.767-7.368-3.767
		c-5.059,0-9.156,4.098-9.156,9.156c0,3.767,2.279,7.001,5.534,8.402c0.925,2.139,21.676,22.87,23.733,23.815v3.157h0.062
		c-6.464,2.857-11.332,8.546-13.171,15.486h-13.879c-0.574-0.284-1.199-0.439-1.865-0.506c-0.269-2.728-2.491-4.883-5.286-4.883
		c-2.976,0-5.389,2.408-5.389,5.389v0.558c-20.224,3.121-35.824,20.302-36.47,41.234h-0.269c-2.981,0-5.389,2.413-5.389,5.389
		c0,2.795,2.155,5.022,4.883,5.286c0.077,0.796,0.326,1.514,0.708,2.17v115.878c-1.24-1.374-83.558-83.676-85.268-85.149
		c-7.177-8.438-17.542-14.049-29.23-15.021c-0.718-0.475-1.519-0.791-2.423-0.878c-0.269-2.728-2.491-4.883-5.286-4.883
		c-2.976,0-5.389,2.408-5.389,5.389v0.134H1.23l0,0c-0.475,4.924-0.775,9.9-0.977,14.897C0.124,249.262,0,252.616,0,256
		c0,2.465,0.119,4.898,0.186,7.348C0.186,263.348,105.29,365.104,105.311,365.77L105.311,365.77z"/>
	<path style="fill:#FFFFFF;" d="M346.29,160.92h-86.405c-23.774,0-43.114,19.341-43.114,43.114v169.911
		c0,5.844-4.935,10.779-10.779,10.779H152.59c-5.844,0-10.779-4.935-10.779-10.779v-99.818c0-23.774-19.341-43.114-43.114-43.114
		H1.23C0.434,239.238,0,247.567,0,256c0,2.465,0.119,4.898,0.186,7.348h98.511c5.844,0,10.779,4.935,10.779,10.779v99.818
		c0,23.774,19.341,43.115,43.114,43.115h53.402c23.774,0,43.114-19.341,43.114-43.115V204.039c0-5.844,4.935-10.779,10.779-10.779
		h86.405c5.844,0,10.779,4.935,10.779,10.779v43.14h32.336v-43.14C389.41,180.265,370.064,160.92,346.29,160.92L346.29,160.92z"/>
	<path style="fill:#CEEAF2;" d="M373.867,247.18c0.067-6.629,0.031-12.954,0.031-18.126v-23.288
		c0-14.819-12.127-26.947-26.947-26.947h-86.859c-14.819,0-26.947,12.127-26.947,26.947v167.988
		c0,14.819-12.127,26.947-26.947,26.947h-54.921c-14.819,0-26.947-12.127-26.947-26.947V272.886
		c0-14.819-12.127-26.947-26.947-26.947H0.253C0.119,249.283,0,252.626,0,256c0,2.465,0.119,4.898,0.186,7.348h98.511
		c5.844,0,10.779,4.935,10.779,10.779v99.818c0,23.774,19.341,43.115,43.114,43.115h53.402c23.774,0,43.114-19.341,43.114-43.115
		V204.039c0-5.844,4.935-10.779,10.779-10.779h86.405c5.844,0,10.779,4.935,10.779,10.779v43.14L373.867,247.18L373.867,247.18z"/>
	<path style="fill:#FFFFFF;" d="M346.234,198.645c-2.976,0-5.389-2.413-5.389-5.389V160.92c0-2.981,2.413-5.389,5.389-5.389
		c2.976,0,5.389,2.413,5.389,5.389v32.336C351.623,196.237,349.21,198.645,346.234,198.645z"/>
	<path style="fill:#CEEAF2;" d="M346.234,155.53v43.114c2.976,0,5.389-2.413,5.389-5.389V160.92
		C351.623,157.943,349.21,155.53,346.234,155.53z"/>
	<path style="fill:#FFFFFF;" d="M258.697,198.645c-2.976,0-5.389-2.413-5.389-5.389V160.92c0-2.981,2.413-5.389,5.389-5.389
		c2.976,0,5.389,2.413,5.389,5.389v32.336C264.087,196.237,261.673,198.645,258.697,198.645z"/>
	<path style="fill:#CEEAF2;" d="M258.697,155.53v43.114c2.976,0,5.389-2.413,5.389-5.389V160.92
		C264.087,157.943,261.673,155.53,258.697,155.53z"/>
	<path style="fill:#FFFFFF;" d="M202.789,422.164c-2.976,0-5.389-2.413-5.389-5.389v-32.336c0-2.981,2.413-5.389,5.389-5.389
		c2.976,0,5.389,2.408,5.389,5.389v32.336C208.178,419.757,205.765,422.164,202.789,422.164z"/>
	<path style="fill:#CEEAF2;" d="M202.789,379.05v43.115c2.976,0,5.389-2.413,5.389-5.389v-32.336
		C208.178,381.458,205.765,379.05,202.789,379.05z"/>
	<path style="fill:#FFFFFF;" d="M94.564,268.603c-2.976,0-5.389-2.413-5.389-5.389v-32.336c0-2.981,2.413-5.389,5.389-5.389
		c2.976,0,5.389,2.413,5.389,5.389v32.336C99.953,266.195,97.54,268.603,94.564,268.603z"/>
	<path style="fill:#CEEAF2;" d="M94.564,225.488v43.115c2.976,0,5.389-2.413,5.389-5.389v-32.336
		C99.953,227.896,97.54,225.488,94.564,225.488z"/>
	<path style="fill:#FFFFFF;" d="M152.807,422.164c-2.976,0-5.389-2.413-5.389-5.389v-32.336c0-2.981,2.413-5.389,5.389-5.389
		s5.389,2.408,5.389,5.389v32.336C158.197,419.757,155.784,422.164,152.807,422.164z"/>
	<path style="fill:#CEEAF2;" d="M152.807,379.05v43.115c2.976,0,5.389-2.413,5.389-5.389v-32.336
		C158.197,381.458,155.784,379.05,152.807,379.05z"/>
	<path style="fill:#FFFFFF;" d="M211.18,208.101c0-2.976,2.413-5.389,5.389-5.389h32.336c2.981,0,5.389,2.413,5.389,5.389
		s-2.413,5.389-5.389,5.389H216.57C213.588,213.49,211.18,211.077,211.18,208.101z"/>
	<path style="fill:#CEEAF2;" d="M254.295,208.101H211.18c0,2.976,2.413,5.389,5.389,5.389h32.336
		C251.882,213.49,254.295,211.077,254.295,208.101z"/>
	<path style="fill:#FFFFFF;" d="M352.351,246.555c0-2.976,2.413-5.389,5.389-5.389h32.336c2.981,0,5.389,2.413,5.389,5.389
		c0,2.976-2.413,5.389-5.389,5.389h-32.336C354.764,251.944,352.351,249.531,352.351,246.555z"/>
	<path style="fill:#CEEAF2;" d="M395.466,246.555h-43.115c0,2.976,2.413,5.389,5.389,5.389h32.336
		C393.058,251.944,395.466,249.531,395.466,246.555z"/>
	<path style="fill:#FFFFFF;" d="M211.18,368.731c0-2.976,2.413-5.389,5.389-5.389h32.336c2.981,0,5.389,2.413,5.389,5.389
		c0,2.976-2.413,5.389-5.389,5.389H216.57C213.588,374.12,211.18,371.707,211.18,368.731z"/>
	<path style="fill:#CEEAF2;" d="M254.295,368.731H211.18c0,2.976,2.413,5.389,5.389,5.389h32.336
		C251.882,374.12,254.295,371.707,254.295,368.731z"/>
	<path style="fill:#FFFFFF;" d="M104.298,368.731c0-2.976,2.413-5.389,5.389-5.389h32.336c2.981,0,5.389,2.413,5.389,5.389
		c0,2.976-2.413,5.389-5.389,5.389h-32.336C106.711,374.12,104.298,371.707,104.298,368.731z"/>
	<path style="fill:#CEEAF2;" d="M147.418,368.731h-43.114c0,2.976,2.413,5.389,5.389,5.389h32.336
		C145.005,374.12,147.418,371.707,147.418,368.731z"/>
	<path style="fill:#FFFFFF;" d="M104.298,276.105c0-2.976,2.413-5.389,5.389-5.389h32.336c2.981,0,5.389,2.413,5.389,5.389
		s-2.413,5.389-5.389,5.389h-32.336C106.711,281.495,104.298,279.082,104.298,276.105z"/>
	<path style="fill:#CEEAF2;" d="M147.418,276.105h-43.114c0,2.976,2.413,5.389,5.389,5.389h32.336
		C145.005,281.495,147.418,279.082,147.418,276.105z"/>
	<path style="fill:#FFFFFF;" d="M325.937,190.698c0,13-10.536,23.536-23.536,23.536c-13,0-23.536-10.536-23.536-23.536v-23.753
		c0-13,10.541-23.536,23.536-23.536c13,0,23.536,10.541,23.536,23.536V190.698L325.937,190.698z"/>
	<path style="fill:#CEEAF2;" d="M278.859,178.819v11.874c0,13,10.541,23.541,23.536,23.541c12.995,0,23.541-10.541,23.541-23.541
		v-11.874H278.859L278.859,178.819z"/>
	<path style="fill:#55A4AD;" d="M325.798,193.256L325.798,193.256c-0.382,3.55-1.56,6.867-3.343,9.766
		C324.237,200.123,325.415,196.811,325.798,193.256L325.798,193.256z M317.561,148.937c3.648,3.074,6.345,7.234,7.601,11.983l0,0
		C323.906,156.171,321.204,152.012,317.561,148.937L317.561,148.937z"/>
	<path style="fill:#E6F4F8;" d="M325.157,160.92L325.157,160.92c0.506,1.922,0.775,3.943,0.775,6.025v11.874l0,0l0,0v-11.874
		C325.937,164.862,325.663,162.842,325.157,160.92L325.157,160.92z"/>
	<path style="fill:#BAE0EC;" d="M325.937,178.819L325.937,178.819v11.874c0,0.868-0.046,1.721-0.139,2.563l0,0
		c0.093-0.842,0.139-1.695,0.139-2.563V178.819L325.937,178.819z"/>
	<path style="fill:#E6F4F8;" d="M311.95,145.424v0.01h-9.549v33.385h23.541v-11.874c0-2.082-0.269-4.098-0.775-6.025
		c-1.256-4.749-3.953-8.908-7.601-11.983C315.877,147.516,313.985,146.328,311.95,145.424L311.95,145.424z"/>
	<path style="fill:#BAE0EC;" d="M325.937,178.819L325.937,178.819h-23.541v35.415c8.479,0,15.915-4.485,20.059-11.213
		c1.788-2.899,2.961-6.211,3.343-9.766c0.093-0.842,0.139-1.695,0.139-2.563V178.819L325.937,178.819L325.937,178.819z"/>
	<path style="fill:#3194B0;" d="M302.396,90.156c-5.276,0-9.549,4.273-9.549,9.549v45.729h19.103V99.705
		C311.95,94.429,307.671,90.156,302.396,90.156L302.396,90.156z"/>
	<path style="fill:#2B8199;" d="M302.396,90.156v55.278h9.549V99.705C311.95,94.429,307.671,90.156,302.396,90.156L302.396,90.156z"
		/>
	<path style="fill:#E46A5D;" d="M331.853,115.449h-58.916c-2.976,0-5.389-2.413-5.389-5.389c0-2.976,2.413-5.389,5.389-5.389h58.916
		c2.976,0,5.389,2.413,5.389,5.389C337.248,113.036,334.83,115.449,331.853,115.449L331.853,115.449z"/>
	<circle style="fill:#E46A5D;" cx="272.736" cy="110.06" r="9.156"/>
	<path style="fill:#D45446;" d="M272.736,100.904v18.312c5.059,0,9.156-4.098,9.156-9.156
		C281.892,105.001,277.79,100.904,272.736,100.904z"/>
	<polygon style="fill:#1C6F8D;" points="302.396,115.449 292.847,115.449 292.847,128.661 302.396,128.661 	"/>
	<polygon style="fill:#19617A;" points="311.95,115.449 302.396,115.449 302.396,128.661 311.95,128.661 	"/>
	<polygon style="fill:#85504A;" points="311.95,115.449 292.847,115.449 302.396,115.449 	"/>
	<circle style="fill:#E46A5D;" cx="302.38" cy="110.06" r="9.156"/>
	<path style="fill:#D45446;" d="M302.396,100.904v18.312c5.059,0,9.156-4.098,9.156-9.156
		C311.552,105.001,307.454,100.904,302.396,100.904z"/>
	<circle style="fill:#E46A5D;" cx="332.039" cy="110.06" r="9.156"/>
	<path style="fill:#D45446;" d="M332.06,100.904v18.312c5.059,0,9.156-4.098,9.156-9.156
		C341.211,105.001,337.113,100.904,332.06,100.904z"/>
	<path style="fill:#3194B0;" d="M392.681,307.764c0,10.37-8.407,18.772-18.772,18.772c-10.365,0-18.772-8.407-18.772-18.772
		c0-10.365,18.772-47.016,18.772-47.016S392.681,297.399,392.681,307.764z"/>
	<path style="fill:#2B8199;" d="M373.909,260.749v65.788c10.37,0,18.772-8.407,18.772-18.772
		C392.681,297.399,373.909,260.749,373.909,260.749z"/>
	<path style="fill:#CEEAF2;" d="M364.592,298.903c-5.1,0-9.234,4.134-9.234,9.234s4.134,9.234,9.234,9.234s9.234-4.134,9.234-9.234
		C373.831,303.036,369.692,298.903,364.592,298.903z M378.595,316.218c-2.63,0-4.764,2.134-4.764,4.764
		c0,2.63,2.134,4.764,4.764,4.764c2.63,0,4.764-2.134,4.764-4.764C383.359,318.352,381.225,316.218,378.595,316.218z"/>
</g>
<g>
</g>
<g>
</g>
<g>
</g>
<g>
</g>
<g>
</g>
<g>
</g>
<g>
</g>
<g>
</g>
<g>
</g>
<g>
</g>
<g>
</g>
<g>
</g>
<g>
</g>
<g>
</g>
<g>
</g>
</svg>
