<?xml version="1.0" encoding="iso-8859-1"?>
<!-- Generator: Adobe Illustrator 19.0.0, SVG Export Plug-In . SVG Version: 6.00 Build 0)  -->
<svg version="1.1" id="Layer_1" xmlns="http://www.w3.org/2000/svg" xmlns:xlink="http://www.w3.org/1999/xlink" x="0px" y="0px"
	 viewBox="0 0 511.88 511.88" style="enable-background:new 0 0 511.88 511.88;" xml:space="preserve">
<circle style="fill:#FFE356;" cx="255.94" cy="255.94" r="255.94"/>
<path style="fill:#5D718F;" d="M255.94,140.94c63.597,0,115,51.523,115,115c0,63.597-51.523,115.119-115,115.119
	c-63.597,0-115.119-51.523-115.119-115.119S192.344,140.94,255.94,140.94z"/>
<path style="fill:#6B7F9E;" d="M255.94,140.94c45.546,0,84.995,26.538,103.643,64.912c2.749,10.4,4.304,21.398,4.304,32.755
	c0,69.454-56.304,125.759-125.759,125.759c-10.281,0-20.322-1.315-30.005-3.586c-39.688-18.17-67.302-58.217-67.302-104.719
	C140.821,192.463,192.344,140.94,255.94,140.94z"/>
<path style="fill:#F7F9F7;" d="M327.905,166.164c21.398,17.095,36.58,41.72,41.481,69.932c-0.359-0.478-0.717-1.195-1.076-2.271
	c-2.271,0.717-2.271,0.837-5.021,1.195l-0.12,0.12c-1.076,1.554,0,0.837-1.793,2.391c-2.152,1.913-3.706,4.423-6.097,5.858
	c-0.239,2.63,0.239,3.228-0.478,6.336c-0.239,1.195-1.554,4.304-3.108,4.064c-0.478-0.12-2.51-5.14-2.989-6.455
	c-0.837-2.391-1.674-4.064-2.271-6.814c-0.359-1.435-0.598-4.184-0.837-5.14c-1.554,0.239-1.554,1.195-2.989,0.239
	c-1.076-0.717-0.598-1.195-1.195-2.391c-1.195-1.195-2.51-2.391-3.825-3.586c-0.956-0.359-4.782,0.239-6.455,0.12
	c-2.869-0.239-3.108-0.12-4.901-2.391c-3.108,0.12-2.749,1.315-5.738-1.315c-1.913-1.674-1.554-4.304-4.423-2.749
	c-0.12,2.391,1.076,2.989,2.152,4.064c0.717,0.837,1.674,1.435,2.152,2.63c0,0,0.239,1.076,0.239,1.315
	c2.749,0.12,3.467-1.195,4.901-2.271c1.435,1.435,0,1.674,2.152,2.749c1.674,0.837,1.315,0.359,2.51,1.793
	c0.598,1.913-3.825,6.933-5.26,7.77c-1.076,0.717-1.674,0.239-2.63,1.076c-1.435,1.195,0.239,1.076-2.391,2.032
	c-2.749,0.956-5.499,3.108-8.368,3.347c-0.598-1.674-1.195-3.467-1.913-5.14c-1.793-5.977-1.793-3.586-3.706-6.694
	c-0.837-1.315-0.478-2.152-1.076-3.347c-0.359-0.837-1.076-1.315-1.554-2.391c-0.837-1.674-1.793-4.304-3.825-4.064
	c-0.359,1.315,1.793,5.858,2.391,6.933c0.598,1.076,1.435,1.554,1.674,3.108c0.359,2.152-0.12,1.913,1.076,3.347
	c2.51,2.989-0.12,2.51,3.706,5.379c2.869,2.152,2.152,2.869,3.347,5.738c1.913,0.478,7.531-2.032,8.488-1.195
	c1.195,2.032-1.315,5.26-1.913,7.053c-2.032,5.977-5.618,5.858-8.488,10.4c-1.554,2.51-2.152,2.749-3.586,5.738
	c-1.554,3.347,3.228,12.552,0.359,16.377c-0.598,0.837-2.63,1.435-5.14,4.064c-2.63,2.869,0.12,2.391-0.956,7.292
	c-0.837,1.076-1.793,1.195-2.749,2.032c-0.359,1.195-0.12,2.032-0.717,3.467c-0.717,1.674-0.717,0.837-1.674,2.152
	c-0.717,1.076-0.598,1.554-1.435,2.51c-0.717,0.956-1.076,1.195-1.674,1.793c-3.228,2.989-10.042,2.989-10.639,2.63
	c-1.674-1.435-0.478-1.793-0.956-3.706c-0.359-1.674-1.315-3.108-2.032-4.423l-0.12-0.12c-0.359-0.598-0.717-1.315-0.837-1.913
	c-1.315-4.184-0.837-7.412-3.108-11.596c-2.869-5.499,1.674-8.368,1.435-11.476c-0.12-0.837-0.359-1.315-0.478-2.032
	c-0.598-3.467-0.837-6.455-3.108-9.205c-2.51-2.869-2.152-1.913-1.315-6.694c1.076-5.499-1.315-4.064-4.662-4.304
	c-1.674-5.021-4.782-2.51-8.009-1.076c-2.032,0.956-2.749-0.239-5.021,0c-5.021,0.717-1.076,2.869-7.77-2.51
	c-2.749-2.271-0.956-1.076-2.63-3.825c-0.598-0.956-2.271-2.391-2.989-3.347c-2.51-3.228,0.478-6.455,0-10.042
	c-0.717-6.814-1.913-0.837,1.913-9.085c2.032-4.423,5.021-4.423,5.738-6.336c0.717-1.793,0.239-2.989,1.435-4.543
	c1.076-1.315,2.63-1.076,3.347-3.108c0.837-2.51-0.837-2.869-2.63-2.869c-0.717-2.63-0.717-2.032-0.239-4.423
	c0.359-1.315,0-2.032,0.359-3.347c0.717-3.347,6.575,0,8.129-1.435c0.717-1.434,0.837-2.869,0-4.304
	c-0.956-1.435-2.152-1.195-2.749-2.51c1.434-0.956,0.359-0.12,1.554-0.359c1.435-0.359,1.195-0.717,2.989-1.076
	c1.554-0.239,2.51-1.674,3.945-2.63c2.152-1.315,1.076-2.63,3.706-2.989c4.064-0.717,1.435-0.598,1.913-4.423
	c0.598-0.239,1.195-0.478,1.793-0.717c1.315,1.674-0.359,0.956,1.195,2.152c0.359-0.239,0.837-0.478,1.315-0.717
	c-0.239-1.793-1.076-1.435-1.674-3.706c-2.032,0.359-2.749,2.032-4.423,1.435c-1.554-0.598-1.674-2.869-1.554-4.782
	c0.598-1.435,3.586-2.152,4.662-2.51c1.793-0.598,1.554-1.913,3.228-3.586c2.152-2.271,0.598,0,1.674-2.869
	c2.391-0.12,1.315-0.239,2.749-0.956h0.12h0.12c0.837-0.359,1.913-0.478,3.108-0.837c4.064-1.315,5.738-0.717,8.607,0.478
	c2.271,0.956,9.205,0.956,9.683,3.825c-1.674,1.793-3.228,0.478-5.618,0.598c0.478,2.271,0.598,2.271,2.63,2.869
	c0.359-1.076-0.12-0.598,0.359-1.315c0.717,0.12,1.315,0.239,2.032,0.359c0.717-2.271,1.435-1.913,3.706-2.271
	c-0.359-1.554-0.717-1.076,0.12-2.391c2.271,0.239,0.478,0,1.554,1.913c1.674-0.239,3.228-2.032,5.499-2.271
	c1.435-0.12,1.315,0.359,3.347,0.12c1.674-0.12,1.554-0.717,3.228-0.12c0.598-1.076,0-1.076,1.435-1.315
	c2.152-0.359,4.184,0.956,6.216,1.315c-1.554-1.913-3.108-1.554-1.195-4.782c2.51-0.478,2.63-0.12,3.706,1.674
	c0.598-0.359,0.837-0.717,1.195-0.837L327.905,166.164z M143.69,231.195c5.14-23.55,17.573-44.47,34.787-60.13
	c1.315,0.478,3.108,0.12,4.423,0.12c0.478-0.837,0.717-1.674,1.674-2.032c0.359-0.12,0.717-0.12,1.315-0.12
	c0.12,0.478,0.239,0.837,0.239,1.315c0,0,0.12,0.359,0,0.239c0-0.12,0.12,0.12,0.12,0.239c2.271-1.315,0.359-1.435,1.674-3.825
	c-1.913-0.359-1.674-0.12-2.869-1.435c1.195-1.315,3.467-1.793,5.14-1.674c-0.12,1.195-0.717,1.195-0.239,2.152
	c1.315-0.837,2.271-2.989,4.423-2.63c0.359,0.239,0.837,0.598,1.315,0.837c-1.076,1.076-2.749,1.076-4.184,1.674
	c-0.598,6.455,2.032,1.076,1.195,5.379c1.554-0.12,3.108-1.315,3.706-2.391c-0.598-0.717-1.435-0.717-1.913-1.674
	c0.359-1.195,1.195-2.032,2.271-2.63c0.717-0.359,1.674-0.598,2.749-0.598c11.715,0.12,6.097,0.598,9.802,2.271
	c0.837,0.359,2.271,0.478,2.749,1.195c0.717,1.076,0,2.152,1.195,3.108c1.076,0.717,1.195,0,2.51,1.674
	c-0.239,0.956-0.956,2.032-2.391,2.032c-2.032,0-0.837-1.315-2.989-1.076c0,2.032,2.032,2.749,0.239,3.825
	c-1.674,0.956-0.598-0.359-1.793,0.359c0,0-0.12,0.12-0.239,0.12c-0.12,0.12-0.12,0.12-0.239,0.239
	c-0.239,0.239-0.359,0.478-0.598,0.598c-2.989-0.837-2.391-0.478-4.184-2.391c-0.717-0.717-0.717-0.956-1.913-0.837
	c-0.717,0-1.674,0.359-2.391-0.239c1.435-1.793,2.152-0.12,4.184-1.076c0.359-0.12,2.63-2.032,3.108-2.391
	c-0.598-1.435-0.12-0.239-0.956-1.195c-2.032-2.152-2.63-1.554-5.499-1.554c-1.315,1.554-2.271,3.347-3.706,4.184
	c-0.837,0.478-1.913,0.598-3.228,0c0.598,2.51,2.271,0.598,2.391,3.706c-1.076-0.239-1.674-0.717-2.749-0.359
	c-2.391,0.837-0.239,0.837-0.12,1.315c0,0,1.076,0.12,0,0.598c-1.195,0.478-0.239-0.239-2.51-1.674
	c0.359-0.598,0.717-1.195,0.956-1.793c-1.913,0.598-4.304,1.554-6.575,2.63c-2.51,1.315-4.901,2.749-6.336,4.064
	c0,2.271,0.359,0.717,0.598,3.347c3.467,0.239,2.271,1.195,5.738,2.152c0.717,0.239,1.554,0.359,2.51,0.478
	c0,1.674-1.435,2.869-0.478,4.662c2.391,1.674,2.51-1.554,3.108-3.706c8.129-1.674,4.184-4.064,6.336-8.488
	c0.359-0.717,0.717-1.435,1.435-2.152c0.598,0,3.108,0.239,3.706,0.359c1.793,0.359,0.837,0.717,2.869,1.674
	c0,1.554-0.837,3.706,1.554,3.228c1.793-0.359,1.435-1.793,3.586-2.152c0.956,2.391,0.717,3.347,1.195,6.097
	c5.26,2.032,2.989,3.706,1.913,7.651c0.717,0.359,1.315,0.598,2.032,0.956c0,1.076-0.12,2.271-0.12,3.347
	c-0.12,0-5.618-1.195-6.097-1.315c0.837-2.391,2.391-2.391,3.347-4.901c-2.032,0.359-1.793,0.956-3.228,1.435
	c-1.315,0.359-2.271,0.12-3.706,0.239c-0.478,1.554,0-1.435,0.12,0.598c0.12,0.717,0.478,0-0.12,0.837
	c-1.793-0.837-1.195-2.869-4.662-0.956c0.717,0.359,1.554,0.717,2.391,0.956c-0.12,2.271-0.239,0.598-0.717,2.032
	c-1.195,3.825,3.228,1.435,4.304,1.315c-0.239,2.032-1.554,2.032-3.347,2.63c-1.913,0.598-2.51,1.435-4.064,1.793
	c0-2.391-0.359-0.359,0.717-2.032c-1.554,0.12-2.63,0.837-4.184,1.434h-0.12c-1.913,0.717-2.152,0.837-2.391,3.347
	c-1.674,0.478-3.467,1.076-4.662,2.271c-1.195,1.076-2.271,2.152-3.347,3.228c-0.12,0.12-0.239,0.12-0.239,0.239
	c0.359,2.989,0,3.108-1.793,4.304c-1.554,0.956-2.032,0.956-3.467,2.271c-4.662,4.184-2.391,2.152-2.152,9.324
	c-0.956-0.239-1.913-0.598-2.749-0.956c-0.717-4.782,0.239-3.108-3.586-4.304c-4.064-1.195-3.586,0.837-5.26,1.195
	c-1.913,0.359-2.749-1.674-5.499,0c-1.554,1.076-2.989,1.674-3.347,3.586c-0.478,2.271-1.434,3.825-1.315,6.336
	c0.239,6.694,6.336,7.053,7.89,3.945c1.076-2.032,0.717-3.228,4.184-2.63c0.359,1.793-0.239,3.108-0.598,4.423
	c-0.239,0.837-1.076,2.271-0.717,3.347c2.391,0.956,2.51-0.837,5.618,1.076c0.239,3.108-1.435,6.694,0.956,8.488
	c1.913,1.435,2.032,0.12,3.706-0.12c1.793-0.359,1.554,0.837,3.228,1.076c0.956-1.195,0.598-0.478,1.195-1.913
	c1.076-2.51,1.435-1.315,4.064-2.869c0.239-0.12,0.478-0.239,0.717-0.478c0.239,0.598,0.598,1.195,0.956,1.793
	c1.913-2.271,2.152,0,4.304,0.598c0.956,0.239,1.674,0.359,2.152,0.359c1.554,0,1.793-0.717,3.945,0
	c0.239,0.12,0.598,0.239,0.837,0.239c0,0,0.12,0,0.12,0.12c0,0,0.12,0.12,0.239,0.12c0.359,0.359,0.359,0.837,0.717,1.315
	c1.554,1.435,2.989,2.869,4.543,4.304c2.869,1.195,2.869-0.956,6.216,2.152c1.435,1.315,0.717,1.315,1.554,2.989
	c0.12,0.239,0.359,0.478,0.478,0.837c0.239,0.837,0.598,1.554,0.956,2.271c1.554,2.032,3.586,0.717,5.618,2.749
	c1.195,1.195,0.239,0.837,2.989,1.315c4.184,0.717,2.51,0.239,5.738,2.63c1.195,0.837,1.554,0.359,2.63,1.195
	c1.554,2.152,1.195,4.662-0.12,6.575c-4.064,5.977-2.749,5.021-2.869,9.683c-0.12,2.749-0.956,8.368-3.467,8.966
	c-9.205,2.63-3.825,4.423-6.336,8.966c-0.717,1.315-1.195,1.674-1.674,2.63c-1.793,4.303-0.598,5.738-5.977,4.782
	c0.478,0.956,0.239,0.239,0.717,1.076c1.674,2.51,1.913,4.423-1.435,5.021c-2.749,0.478-1.554,0-1.793,3.108
	c-1.076,0.478-1.554,0-2.271,0.717c0.956,1.793,0.12,0.239,1.674,1.315c-0.239,0.956-0.478,1.913-0.717,2.869
	c-0.598,2.271-0.837,0.239-1.076,2.869c0.956,0.478,1.674,0.359,2.51,1.554c-0.12,0.837-0.956,3.347-1.195,4.662
	c1.315,2.032,2.51,4.184,5.379,4.423c0,1.674,0.359,1.554-1.076,1.913c-1.195,0.239-3.945-0.837-5.021-1.435
	c-1.913-1.076-3.706-2.391-5.021-4.304c-0.717-1.076-0.478-0.598-1.195-1.554c-1.435-1.793-0.837-2.63-1.195-3.825
	c-0.239-0.717-1.315-1.435-0.837-3.825c0.12-0.598,1.195-3.706-0.12-3.228c-1.195,0.478,0.956,0.239-0.717,1.076
	c-0.359-1.076-0.717-2.749-0.956-4.184c-0.478-2.391-0.956-2.391-1.315-3.825c-0.598-3.228,0.837-3.586-0.717-9.085
	c-0.956-3.586-0.598-12.193-1.674-16.497c-0.12-0.717-0.359-1.315-0.598-1.793c-0.956-1.674-3.467-2.391-5.379-3.706
	c-0.12,0-0.239-0.12-0.239-0.12c-2.63-1.913-5.26-9.324-7.412-12.074c-0.956-1.315-1.674-0.717-2.032-2.869
	c-0.478-1.913,0.239-1.554,0.837-3.228c-3.228-5.977,4.184-5.977,2.749-13.15c-0.359-1.315-1.315-3.228-2.152-3.825
	c-1.554,0.717-0.837,1.076-1.674,2.391c-1.195-0.717-2.51-1.435-3.706-2.152c-3.825-3.706-1.793-0.956-2.869-3.347
	c-2.271-5.021-4.423-2.152-7.173-4.662c-1.195-1.076-1.435-2.63-3.467-2.391c-3.108,0.359-1.315,0.837-4.543-0.598
	c-2.749-1.315-5.499-2.749-7.412-4.423c-0.12-3.586,0.956-3.228-1.674-6.575L143.69,231.195z M179.792,169.87
	c0.717-0.598,1.435-1.195,2.152-1.793l0.12,0.12c0.12,0.239,0.239,0.239,0.359,0.837C180.509,169.511,180.509,169.75,179.792,169.87
	z M278.295,204.059c1.076,0.598,2.271,1.195,2.989,1.793c0.956,2.63-0.239,1.315,1.674,4.064c1.076,1.435,0.837,2.51,1.913,3.347
	c2.032-0.239,0.239,0.359,1.554-0.956c0.239-0.239,0.837-0.956,1.076-1.315c-0.717-0.956-1.076-1.076-1.674-2.152
	c2.271-2.989,3.228-1.315,3.825,0.717c1.435,5.618,3.706,3.945,5.499,3.706c1.913-0.239,0.239,0.12,1.913,0.478s0.837,0,2.032-0.239
	c3.825-0.956,0.837,6.575,0.478,7.412c-2.152,0.239-1.674-0.239-3.228-0.359c-3.108-0.359,0.239,1.793-7.053-0.478
	c-6.933-2.152-5.499-2.749-6.933,2.152c-1.554-0.12-1.554-0.359-2.989-0.956c-0.598-0.239-0.837-0.359-1.076-0.359h-0.12
	c-0.598-0.239,0,0-1.195-1.195c-1.076-0.956-3.706-1.195-5.499-2.152c0-1.554,1.435-2.869-0.239-4.782
	c-0.598-0.12-8.368,0.239-9.683,0.478c-2.51,0.478-2.989,2.63-6.455,2.271c-1.913-0.239-1.195-0.12-1.793-1.195
	c0.598-0.598,0-0.239,1.076-0.717c0.359-0.12,0.598-0.12,0.956-0.12c5.618-0.837,2.749-3.706,6.336-6.455
	c2.989-2.391,0.598,0,2.271-2.869c2.032-0.12,1.674,0.837,3.467,0c1.435-0.717,0.956-1.315,2.989-1.435
	c1.793,1.793,1.435,2.869,4.304,4.184c1.195,0.478,1.793,0.837,2.63,1.793c1.315,1.913,0.239,1.315,0.717,2.51
	c0.12-0.12,0.239-0.12,0.359-0.12h0.12c1.554-0.717-0.717-0.956,1.674-3.228c-0.717-0.478-1.315-0.956-1.674-1.195h-0.12
	c-1.913-1.195-1.195-0.12-3.706-3.228c-0.717-0.837-0.837-0.956-0.837-2.271c1.793-0.359,2.152,0.956,3.706,2.391
	c0.239,0.239,0.478,0.359,0.717,0.598h0.12L278.295,204.059z M317.624,283.435c-1.674,0.837-1.793,2.749-3.108,3.825
	c-1.315,1.195-3.108,0.598-3.586,2.869c-0.717,2.749,1.076,1.913-0.837,5.618c-0.717,1.315-0.717,4.782,0.359,5.738
	c3.228,3.108,4.901-4.662,5.618-7.173c0.598-1.793,1.076-3.706,1.674-5.379C318.341,287.141,319.178,285.706,317.624,283.435z
	 M312.364,201.07c0.239,3.586,2.391,5.021,3.945,6.694c-0.239,1.674-0.598,1.315-0.598,3.706c1.793,1.315,3.108,2.152,5.499,1.435
	c0.359-2.869-0.598-2.749-1.435-4.662c0.12-0.239,0.598-0.478,0.598-0.598c0.717-0.837,0.359,0.359,0.717-1.195
	c-1.674-0.598-4.543-2.391-4.782-4.662c0.837-0.717,0.598-0.239,1.195-0.717c1.315-0.837,0.359,0.478,1.195-1.076
	c-0.717-1.315-1.435-1.554-3.108-0.956c-0.717,0.239-2.749,1.674-3.108,2.032H312.364z M297.302,202.027
	c-1.195-1.554-1.076-2.391-3.228-2.391c-0.837,0.956-1.913,2.391-2.391,3.825c-0.717,2.152-0.239,0.717-0.12,2.989
	c0,0.12,0,0.239,0,0.239c0,1.435-0.359-0.239-0.12,1.076c1.674-0.359,0.359-0.359,1.674-0.717c1.195-0.359,4.901-1.554,5.977-1.315
	c2.51,0.598,4.662,2.63,7.531,0.598c-0.12-2.51-3.228-3.586-5.379-4.662c0.12-2.391,0.717-0.478,0.598-2.749
	c-0.717,0-1.195-0.12-1.913,0.12c-1.674,0.717-0.717,0.956-0.717,1.195c0.12,1.315,1.674-0.239,0,1.315
	c-0.478,0.359-1.195,0.359-1.793,0.478H297.302z M254.267,184.095c-0.12,4.184,1.315,2.749,2.749,4.782
	c-0.598,1.793-0.717,0.359-1.435,2.152c-0.598,1.554,0.12,0.12-0.239,2.749c1.076,0.12,2.63-0.359,4.064-0.478
	c2.032-0.12,1.913-0.359,2.63-2.391c-1.076-1.315-2.152-2.749-3.347-4.064c-1.435-2.152,0-0.717-0.478-2.51
	c-0.359-0.598-0.598-1.315-0.956-1.913C255.343,183.019,255.582,182.9,254.267,184.095z"/>
<path style="fill:#5FDC68;" d="M222.468,65.629c-166.642-31.559-141.06,113.207-58.815,75.79
	C201.429,124.324,201.07,77.224,222.468,65.629z"/>
<path style="fill:#0F7986;" d="M206.689,71.965c-39.09,3.586-89.896,34.428-105.197,84.995l-5.379-1.195
	c18.649-53.196,60.13-81.169,110.577-83.68V71.965z"/>
<path style="fill:#5FDC68;" d="M66.466,228.445c-81.408,148.711,64.075,169.152,53.914,79.376
	C115.717,266.579,70.889,252.473,66.466,228.445z"/>
<path style="fill:#0F7986;" d="M67.661,245.54c-8.607,38.373,5.021,96.112,48.295,126.356l-2.869,4.782
	c-44.828-34.189-58.695-82.245-45.426-131.018V245.54z"/>
<path style="fill:#5FDC68;" d="M173.217,427.244c116.315,123.487,180.629-8.607,92.167-26.777
	C224.74,392.099,197.364,430.472,173.217,427.244z"/>
<path style="fill:#0F7986;" d="M189.833,431.428c33.83,20.083,92.884,24.984,135.083-6.933l3.586,4.184
	C282.12,460.716,232.151,459.043,189.833,431.428z"/>
<path style="fill:#5FDC68;" d="M395.207,387.198c153.373-72.443,47.578-174.532,2.989-95.873
	C377.754,327.427,405.727,365.202,395.207,387.198z"/>
<path style="fill:#0F7986;" d="M404.292,372.614c29.527-25.941,52.479-80.691,35.145-130.54l5.021-2.152
	c16.138,54.033-0.956,101.013-40.286,132.692H404.292z"/>
<path style="fill:#5FDC68;" d="M425.69,163.654c-21.518-168.196-151.221-99.22-90.254-32.516
	C363.409,161.741,407.998,146.798,425.69,163.654z"/>
<path style="fill:#0F7986;" d="M414.693,150.504c-15.541-36.102-60.488-74.834-113.326-73.877l-0.478-5.499
	c56.424,1.315,95.753,32.157,113.804,79.257V150.504z"/>
<g>
</g>
<g>
</g>
<g>
</g>
<g>
</g>
<g>
</g>
<g>
</g>
<g>
</g>
<g>
</g>
<g>
</g>
<g>
</g>
<g>
</g>
<g>
</g>
<g>
</g>
<g>
</g>
<g>
</g>
</svg>
